<svg width="103" height="33" viewBox="0 0 103 33" fill="none" xmlns="http://www.w3.org/2000/svg">
<path d="M22.497 6.01458C23.0823 5.1838 24.4611 3.23989 25.7381 1.44521C26.1974 0.799604 26.6131 0.271472 26.6618 0.271729C26.7105 0.271985 26.8584 0.358554 26.9904 0.464249L27.2304 0.656259L25.7165 2.7903C24.8837 3.96396 24.0275 5.17398 23.8136 5.4792C23.5998 5.78441 23.3946 6.07255 23.3577 6.11951C23.3208 6.16647 22.8849 6.78117 22.3891 7.48552C21.5473 8.68128 20.6593 9.93605 18.1274 13.5072C17.564 14.3021 16.8655 15.2892 16.5753 15.7011C16.2851 16.1129 15.6252 17.0454 15.1088 17.7732C14.5924 18.5011 13.8501 19.5506 13.4594 20.1056C13.0685 20.6606 12.6527 21.2421 12.5354 21.3979C12.2903 21.7231 11.9218 22.2416 11.0767 23.4507C10.2702 24.6046 10.3225 24.5647 9.98485 24.2829L9.70311 24.0476L9.86882 23.8345C9.95992 23.7173 10.1842 23.4069 10.3672 23.1447C10.5501 22.8824 11.3721 21.7194 12.1939 20.56C13.0156 19.4006 13.7364 18.3825 13.7957 18.2975C13.8877 18.1656 13.8635 18.0882 13.6294 17.7661C12.9128 16.7795 9.35042 11.8134 8.73529 10.9432C7.48488 9.17458 5.77464 6.80431 5.68594 6.71714C5.62711 6.65925 5.60936 9.54784 5.63087 15.6815L5.66263 24.7313H5.32113H4.97963L4.9278 19.6088C4.89929 16.7914 4.87043 12.4277 4.86377 9.91171L4.85156 5.33713L5.17172 5.23852C5.4637 5.14871 5.50485 5.15682 5.63975 5.33099C5.82194 5.56636 9.57539 10.7918 10.5295 12.1385C11.0441 12.8648 14.2879 17.3937 14.3608 17.4876C14.3663 17.4948 14.6399 17.1176 14.9686 16.6493C15.2972 16.1809 15.6136 15.7332 15.6716 15.6543C15.781 15.5054 16.7874 14.0848 18.7678 11.2835C19.4017 10.3868 20.3814 9.00298 20.9448 8.2083C21.5083 7.41363 22.2068 6.42643 22.497 6.01458Z" fill="#06B3A8"/>
<path d="M19.7274 12.8215C19.9098 12.5632 20.5443 11.6508 21.1373 10.7938C21.7302 9.9369 22.2599 9.23571 22.3144 9.23571C22.3689 9.23571 22.5344 9.27789 22.6823 9.32945L22.9512 9.42319V17.0132V24.6033H22.567H22.1828L22.1789 17.6238C22.1756 11.4129 22.1611 10.6632 22.0476 10.8152C21.9774 10.9091 21.4557 11.6582 20.8881 12.48C20.3205 13.3017 19.1982 14.9133 18.3942 16.0613C17.0835 17.9326 16.3939 18.9203 15.3101 20.4784C15.1222 20.7484 14.277 21.9589 13.4318 23.1682C11.0448 26.5835 9.86523 28.2728 9.63259 28.6092C8.97656 29.5576 7.30261 31.9331 7.16507 32.1107C7.00806 32.3135 6.99858 32.315 6.77704 32.1697C6.65213 32.0879 6.5303 31.9698 6.50631 31.9073C6.48232 31.8448 6.7183 31.4341 7.03077 30.9946C7.34324 30.555 8.8987 28.332 10.4875 26.0546C12.0762 23.7773 13.6191 21.5685 13.9162 21.1463C14.2132 20.7242 14.6701 20.071 14.9314 19.695C15.9058 18.2928 19.4076 13.274 19.7274 12.8215Z" fill="#06B3A8"/>
<path d="M34.4777 22.1094C34.7824 22.1094 34.9777 21.9141 34.9777 21.5859V12.75H35.0246L38.7589 21.5156C38.8917 21.8281 39.0949 21.9687 39.4074 21.9687C39.7199 21.9687 39.9152 21.8281 40.0558 21.5L43.7902 12.75H43.8371V21.5859C43.8371 21.9141 44.0246 22.1094 44.3371 22.1094C44.6496 22.1094 44.8371 21.9141 44.8371 21.5859V11.2734C44.8371 10.875 44.5714 10.6172 44.173 10.6172C43.8136 10.6172 43.5871 10.7891 43.423 11.1719L39.4308 20.5937H39.3839L35.3761 11.1719C35.2121 10.7891 35.0011 10.6172 34.6417 10.6172C34.2433 10.6172 33.9777 10.875 33.9777 11.2734V21.5859C33.9777 21.9141 34.1652 22.1094 34.4777 22.1094ZM53.2792 22.1328C55.498 22.1328 56.9824 20.5078 56.9824 17.9375C56.9824 15.3672 55.498 13.7422 53.2792 13.7422C51.0605 13.7422 49.5761 15.3672 49.5761 17.9375C49.5761 20.5078 51.0605 22.1328 53.2792 22.1328ZM53.2792 21.2187C51.6777 21.2187 50.6308 19.9922 50.6308 17.9375C50.6308 15.8828 51.6777 14.6562 53.2792 14.6562C54.8886 14.6562 55.9355 15.8906 55.9355 17.9375C55.9355 19.9844 54.8886 21.2187 53.2792 21.2187ZM62.073 22.1328C62.3777 22.1328 62.5886 21.9062 62.5886 21.5781V17.1875C62.5886 15.6797 63.5261 14.6641 64.948 14.6641C66.2917 14.6641 67.0808 15.4766 67.0808 16.8984V21.5781C67.0808 21.9062 67.2917 22.1328 67.5964 22.1328C67.9011 22.1328 68.1121 21.9062 68.1121 21.5781V16.7344C68.1121 14.8906 67.0105 13.7422 65.2449 13.7422C63.9246 13.7422 62.9792 14.3828 62.5574 15.375H62.5339V14.2656C62.5339 13.9531 62.3308 13.7422 62.0417 13.7422C61.7605 13.7422 61.5574 13.9531 61.5574 14.2656V21.5781C61.5574 21.9062 61.7683 22.1328 62.073 22.1328ZM76.1246 22.1328C77.4996 22.1328 78.4761 21.3516 78.8824 20.2422H78.9058V21.625C78.9058 21.9297 79.148 22.1328 79.4371 22.1328C79.7339 22.1328 79.9449 21.9219 79.9449 21.625V11.1484C79.9449 10.8203 79.7261 10.5937 79.4214 10.5937C79.1168 10.5937 78.9058 10.8203 78.9058 11.1484V15.5469H78.8824C78.4527 14.4922 77.4136 13.7422 76.1011 13.7422C74.0621 13.7422 72.648 15.4062 72.648 17.9375C72.648 20.4609 74.0699 22.1328 76.1246 22.1328ZM76.3043 21.2187C74.7418 21.2187 73.7105 19.9219 73.7105 17.9375C73.7105 15.9531 74.7418 14.6562 76.3043 14.6562C77.8511 14.6562 78.9136 15.9766 78.9136 17.9375C78.9136 19.9062 77.8511 21.2187 76.3043 21.2187ZM87.8246 22.1328C89.1136 22.1328 90.0902 21.4922 90.5199 20.4922H90.5433V21.6094C90.5433 21.9062 90.7386 22.1328 91.0355 22.1328C91.3324 22.1328 91.5199 21.9062 91.5199 21.6094V14.2969C91.5199 13.9687 91.3089 13.7422 91.0043 13.7422C90.6996 13.7422 90.4886 13.9687 90.4886 14.2969V18.6953C90.4886 20.2187 89.5355 21.2109 88.1214 21.2109C86.7621 21.2109 85.9964 20.4141 85.9964 18.9766V14.2969C85.9964 13.9687 85.7777 13.7422 85.4808 13.7422C85.1761 13.7422 84.9574 13.9687 84.9574 14.2969V19.1562C84.9574 20.9844 86.0589 22.1328 87.8246 22.1328Z" fill="#001E18"/>
</svg>
