<svg width="128" height="41" viewBox="0 0 128 41" fill="none" xmlns="http://www.w3.org/2000/svg">
<path d="M28.1212 7.51841C28.8528 6.47993 30.5764 4.05004 32.1726 1.8067C32.7467 0.999688 33.2663 0.339524 33.3273 0.339844C33.3881 0.340164 33.5729 0.448376 33.7379 0.580494L34.038 0.820507L32.1456 3.48806C31.1046 4.95513 30.0343 6.46766 29.767 6.84918C29.4997 7.2307 29.2432 7.59088 29.1971 7.64957C29.151 7.70827 28.6061 8.47665 27.9864 9.35708C26.9341 10.8518 25.8241 12.4202 22.6593 16.8842C21.9549 17.8778 21.0819 19.1117 20.7191 19.6266C20.3564 20.1414 19.5315 21.307 18.886 22.2167C18.2405 23.1265 17.3127 24.4384 16.8242 25.1322C16.3356 25.8259 15.8159 26.5528 15.6692 26.7475C15.3629 27.1541 14.9023 27.8022 13.8459 29.3136C12.8377 30.756 12.9031 30.706 12.4811 30.3538L12.1289 30.0596L12.336 29.7934C12.4499 29.6468 12.7302 29.2588 12.9589 28.9311C13.1876 28.6032 14.2151 27.1494 15.2423 25.7002C16.2695 24.2509 17.1705 22.9783 17.2446 22.8721C17.3596 22.7072 17.3293 22.6104 17.0368 22.2078C16.141 20.9745 11.688 14.7669 10.9191 13.6792C9.3561 11.4684 7.2183 8.50557 7.10742 8.39661C7.03389 8.32425 7.01169 11.935 7.03859 19.6021L7.07829 30.9143H6.65141H6.22453L6.15975 24.5112C6.12411 20.9895 6.08804 15.5348 6.07971 12.3898L6.06445 6.6716L6.46465 6.54834C6.82963 6.43607 6.88107 6.44621 7.04968 6.66391C7.27742 6.95814 11.9692 13.4899 13.1619 15.1733C13.8051 16.0811 17.8598 21.7423 17.9509 21.8597C17.9579 21.8687 18.2998 21.3971 18.7107 20.8118C19.1215 20.2263 19.517 19.6667 19.5895 19.5681C19.7262 19.382 20.9842 17.6061 23.4597 14.1046C24.2521 12.9837 25.4767 11.2539 26.181 10.2606C26.8854 9.26722 27.7584 8.03323 28.1212 7.51841Z" fill="#06B3A8"/>
<path d="M24.6592 16.027C24.8873 15.7042 25.6803 14.5637 26.4216 13.4924C27.1627 12.4213 27.8248 11.5448 27.893 11.5448C27.9611 11.5448 28.168 11.5975 28.3529 11.662L28.6889 11.7792V21.2667V30.7543H28.2087H27.7285L27.7236 22.03C27.7195 14.2663 27.7013 13.3292 27.5595 13.5191C27.4718 13.6365 26.8196 14.573 26.1101 15.6001C25.4006 16.6273 23.9978 18.6419 22.9927 20.0768C21.3543 22.416 20.4924 23.6505 19.1376 25.5982C18.9028 25.9357 17.8463 27.4488 16.7897 28.9604C13.806 33.2295 12.3315 35.3412 12.0407 35.7616C11.2207 36.9472 9.12825 39.9165 8.95633 40.1386C8.76007 40.3921 8.74823 40.3939 8.47129 40.2124C8.31516 40.1101 8.16287 39.9624 8.13288 39.8843C8.1029 39.8062 8.39787 39.2928 8.78846 38.7434C9.17905 38.1939 11.1234 35.4152 13.1093 32.5685C15.0952 29.7218 17.0239 26.9608 17.3953 26.4331C17.7665 25.9054 18.3376 25.089 18.6643 24.6189C19.8822 22.8661 24.2594 16.5927 24.6592 16.027Z" fill="#06B3A8"/>
<path d="M43.0969 27.6367C43.4778 27.6367 43.7219 27.3926 43.7219 26.9824V15.9375H43.7805L48.4485 26.8945C48.6145 27.2852 48.8684 27.4609 49.259 27.4609C49.6497 27.4609 49.8938 27.2852 50.0696 26.875L54.7375 15.9375H54.7961V26.9824C54.7961 27.3926 55.0305 27.6367 55.4211 27.6367C55.8118 27.6367 56.0461 27.3926 56.0461 26.9824V14.0918C56.0461 13.5938 55.7141 13.2715 55.2161 13.2715C54.7668 13.2715 54.4836 13.4863 54.2786 13.9648L49.2883 25.7422H49.2297L44.22 13.9648C44.0149 13.4863 43.7512 13.2715 43.302 13.2715C42.804 13.2715 42.4719 13.5938 42.4719 14.0918V26.9824C42.4719 27.3926 42.7063 27.6367 43.0969 27.6367ZM66.5989 27.666C69.3723 27.666 71.2278 25.6348 71.2278 22.4219C71.2278 19.209 69.3723 17.1777 66.5989 17.1777C63.8254 17.1777 61.97 19.209 61.97 22.4219C61.97 25.6348 63.8254 27.666 66.5989 27.666ZM66.5989 26.5234C64.5969 26.5234 63.2883 24.9902 63.2883 22.4219C63.2883 19.8535 64.5969 18.3203 66.5989 18.3203C68.6106 18.3203 69.9192 19.8633 69.9192 22.4219C69.9192 24.9805 68.6106 26.5234 66.5989 26.5234ZM77.5911 27.666C77.9719 27.666 78.2356 27.3828 78.2356 26.9727V21.4844C78.2356 19.5996 79.4075 18.3301 81.1848 18.3301C82.8645 18.3301 83.8508 19.3457 83.8508 21.123V26.9727C83.8508 27.3828 84.1145 27.666 84.4954 27.666C84.8762 27.666 85.1399 27.3828 85.1399 26.9727V20.918C85.1399 18.6133 83.7629 17.1777 81.5559 17.1777C79.9055 17.1777 78.7239 17.9785 78.1965 19.2188H78.1672V17.832C78.1672 17.4414 77.9133 17.1777 77.552 17.1777C77.2004 17.1777 76.9465 17.4414 76.9465 17.832V26.9727C76.9465 27.3828 77.2102 27.666 77.5911 27.666ZM95.1555 27.666C96.8743 27.666 98.095 26.6895 98.6028 25.3027H98.6321V27.0312C98.6321 27.4121 98.9348 27.666 99.2961 27.666C99.6672 27.666 99.9309 27.4023 99.9309 27.0312V13.9355C99.9309 13.5254 99.6575 13.2422 99.2766 13.2422C98.8958 13.2422 98.6321 13.5254 98.6321 13.9355V19.4336H98.6028C98.0657 18.1152 96.7668 17.1777 95.1262 17.1777C92.5774 17.1777 90.8098 19.2578 90.8098 22.4219C90.8098 25.5762 92.5872 27.666 95.1555 27.666ZM95.3801 26.5234C93.427 26.5234 92.1379 24.9023 92.1379 22.4219C92.1379 19.9414 93.427 18.3203 95.3801 18.3203C97.3137 18.3203 98.6418 19.9707 98.6418 22.4219C98.6418 24.8828 97.3137 26.5234 95.3801 26.5234ZM109.781 27.666C111.392 27.666 112.613 26.8652 113.15 25.6152H113.179V27.0117C113.179 27.3828 113.423 27.666 113.794 27.666C114.165 27.666 114.4 27.3828 114.4 27.0117V17.8711C114.4 17.4609 114.136 17.1777 113.755 17.1777C113.374 17.1777 113.111 17.4609 113.111 17.8711V23.3691C113.111 25.2734 111.919 26.5137 110.152 26.5137C108.452 26.5137 107.495 25.5176 107.495 23.7207V17.8711C107.495 17.4609 107.222 17.1777 106.851 17.1777C106.47 17.1777 106.197 17.4609 106.197 17.8711V23.9453C106.197 26.2305 107.573 27.666 109.781 27.666Z" fill="white"/>
</svg>
